<?xml version="1.0" encoding="UTF-8" standalone="no"?>
<svg
   xmlns:dc="http://purl.org/dc/elements/1.1/"
   xmlns:cc="http://creativecommons.org/ns#"
   xmlns:rdf="http://www.w3.org/1999/02/22-rdf-syntax-ns#"
   xmlns:svg="http://www.w3.org/2000/svg"
   xmlns="http://www.w3.org/2000/svg"
   xmlns:sodipodi="http://sodipodi.sourceforge.net/DTD/sodipodi-0.dtd"
   xmlns:inkscape="http://www.inkscape.org/namespaces/inkscape"
   sodipodi:docname="soyless.svg"
   inkscape:version="1.0 (4035a4fb49, 2020-05-01)"
   id="svg8"
   version="1.1"
   viewBox="0 0 42.333322 13.361459"
   height="50.5"
   width="160">
  <defs
     id="defs2" />
  <sodipodi:namedview
     inkscape:bbox-nodes="true"
     inkscape:snap-bbox="true"
     inkscape:window-maximized="0"
     inkscape:window-y="57"
     inkscape:window-x="20"
     inkscape:window-height="898"
     inkscape:window-width="1250"
     units="px"
     showgrid="true"
     inkscape:document-rotation="0"
     inkscape:current-layer="g1144"
     inkscape:document-units="mm"
     inkscape:cy="-33.260307"
     inkscape:cx="50.583952"
     inkscape:zoom="2.8284271"
     inkscape:pageshadow="2"
     inkscape:pageopacity="0"
     borderopacity="1.0"
     bordercolor="#666666"
     pagecolor="#1d2021"
     id="base">
    <inkscape:grid
       id="grid10"
       type="xygrid" />
  </sodipodi:namedview>
  <metadata
     id="metadata5">
    <rdf:RDF>
      <cc:Work
         rdf:about="">
        <dc:format>image/svg+xml</dc:format>
        <dc:type
           rdf:resource="http://purl.org/dc/dcmitype/StillImage" />
        <dc:title></dc:title>
      </cc:Work>
    </rdf:RDF>
  </metadata>
  <g
     id="layer1"
     inkscape:groupmode="layer"
     inkscape:label="Layer 1">
    <path
       sodipodi:nodetypes="ccccccccccccc"
       id="path12"
       d="m -39.6875,31.75 -2.645834,0 v 1.322917 l 2.645834,0 v 3.968749 h -3.96875 V 35.71875 l 2.645833,0 v -1.322917 l -2.645833,0 v -3.96875 l 3.96875,1e-6 z"
       style="fill:#000000;fill-opacity:1" />
    <path
       id="path22"
       d="m -35.71875,31.75 v 3.96875 h 2.645833 v 1.322916 h -2.645833 v 1.322917 H -31.75 V 31.75 h -1.322917 v 2.645833 h -1.322917 V 31.75 Z"
       style="fill:#000000" />
    <path
       id="path24"
       d="m -31.75,35.71875 v -6.614583 h 1.322917 v 6.614583 z"
       style="fill:#000000" />
    <path
       d="m -30.427084,30.427083 v 6.614584 h 3.96875 V 35.71875 h -2.645833 v -1.322917 h 2.645833 v -3.96875 z M -29.104167,31.75 h 1.322916 v 1.322917 h -1.322916 z"
       style="fill:#000000;stroke-width:1"
       id="path26" />
    <path
       style="fill:#000000"
       d="m -22.489583,30.427083 -2.645834,0 V 31.75 l 2.645833,0 v 3.96875 l -3.968749,0 v -1.322917 l 2.645833,0 v -1.322916 l -2.645833,0 v -3.96875 l 3.96875,0 z"
       id="path30"
       sodipodi:nodetypes="ccccccccccccc" />
    <path
       sodipodi:nodetypes="ccccccccccccc"
       id="path32"
       d="m -18.520833,31.75 -2.645834,0 v 1.322917 l 2.645833,0 v 3.968749 h -3.968749 V 35.71875 l 2.645833,0 v -1.322917 l -2.645833,0 v -3.96875 l 3.96875,1e-6 z"
       style="fill:#000000" />
    <path
       d="m -39.6875,31.75 v 3.96875 h 3.96875 V 31.75 Z m 1.322916,1.322917 h 1.322917 v 1.322916 h -1.322917 z"
       style="fill:#000000;fill-opacity:1;stroke-width:1"
       id="path34" />
    <path
       id="path952"
       d="m -18.520834,34.395833 h 1.322917 v 1.322917 h -1.322917 z"
       style="fill:#000000;fill-opacity:1;stroke:none;stroke-width:0.264583px;stroke-linecap:butt;stroke-linejoin:miter;stroke-opacity:1" />
    <g
       transform="translate(-43.65625,26.458333)"
       style="fill:#000000;fill-opacity:1;stroke:none"
       id="g969">
      <path
         style="fill:#000000;fill-opacity:1;stroke:none;stroke-width:0.264583px;stroke-linecap:butt;stroke-linejoin:miter;stroke-opacity:1"
         d="M 26.458333,5.2916666 V 6.6145832 H 27.78125 V 5.2916666 Z"
         id="path954" />
      <path
         id="path956"
         d="m 27.78125,6.6145833 v 1.3229166 h 1.322917 V 6.6145833 Z"
         style="fill:#000000;fill-opacity:1;stroke:none;stroke-width:0.264583px;stroke-linecap:butt;stroke-linejoin:miter;stroke-opacity:1" />
      <path
         style="fill:#000000;fill-opacity:1;stroke:none;stroke-width:0.264583px;stroke-linecap:butt;stroke-linejoin:miter;stroke-opacity:1"
         d="m 29.104167,7.9375 v 1.3229166 h 1.322917 V 7.9375 Z"
         id="path958" />
      <path
         id="path960"
         d="M 26.458333,7.9375 V 9.2604166 H 27.78125 V 7.9375 Z"
         style="fill:#000000;fill-opacity:1;stroke:none;stroke-width:0.264583px;stroke-linecap:butt;stroke-linejoin:miter;stroke-opacity:1" />
      <path
         style="fill:#000000;fill-opacity:1;stroke:none;stroke-width:0.264583px;stroke-linecap:butt;stroke-linejoin:miter;stroke-opacity:1"
         d="m 29.104166,5.2916667 v 1.3229166 h 1.322917 V 5.2916667 Z"
         id="path962" />
    </g>
    <path
       style="fill:#000000"
       d="m -13.229167,31.75 v 3.96875 h 2.645833 v 1.322916 h -2.645833 v 1.322917 h 3.96875 V 31.75 h -1.322917 v 2.645833 H -11.90625 V 31.75 Z"
       id="path971" />
    <g
       transform="translate(-43.65625,26.458333)"
       style="fill:#000000;fill-opacity:1;stroke:none"
       id="g986">
      <path
         style="fill:#000000;fill-opacity:1;stroke:none;stroke-width:0.264583px;stroke-linecap:butt;stroke-linejoin:miter;stroke-opacity:1"
         d="m 34.395833,3.96875 h 3.96875 v 1.3229166 h -3.96875 z"
         id="path973" />
      <path
         style="fill:#000000;fill-opacity:1;stroke:none;stroke-width:0.264583px;stroke-linecap:butt;stroke-linejoin:miter;stroke-opacity:1"
         d="m 35.057292,7.9374999 h 1.322916 V 6.6145832 h -1.322916 z"
         id="path975" />
      <path
         id="path977"
         d="m 34.395833,7.9375 h 3.96875 v 1.3229166 h -3.96875 z"
         style="fill:#000000;fill-opacity:1;stroke:none;stroke-width:0.264583px;stroke-linecap:butt;stroke-linejoin:miter;stroke-opacity:1" />
      <path
         id="path988"
         d="m 36.380208,6.6145834 h 1.322916 V 5.2916667 h -1.322916 z"
         style="fill:#000000;fill-opacity:1;stroke:none;stroke-width:0.264583px;stroke-linecap:butt;stroke-linejoin:miter;stroke-opacity:1" />
    </g>
    <g
       transform="translate(-44.979166,-26.458333)"
       inkscape:export-ydpi="96"
       inkscape:export-xdpi="96"
       id="g1041">
      <path
         sodipodi:nodetypes="ccccccccccccc"
         id="path867"
         d="M 3.9687499,14.552083 H 1.3229166 l -1e-7,1.322917 h 2.6458333 v 3.96875 H -6.6666661e-8 V 18.520833 H 2.6458332 V 17.197917 L -6.6666661e-8,17.197916 0,13.229167 h 3.9687499 z"
         style="fill:#ff00ff;fill-opacity:1;stroke:#000000;stroke-width:0.264583;stroke-miterlimit:4;stroke-dasharray:none;stroke-opacity:1" />
      <path
         id="path869"
         d="m 7.9374997,14.552083 v 3.96875 H 10.583333 V 19.84375 H 7.9374997 v 1.322917 H 11.90625 v -6.614584 h -1.322917 v 2.645834 H 9.2604164 v -2.645834 z"
         style="fill:#ffff00;stroke:#000000;stroke-width:0.264583;stroke-miterlimit:4;stroke-dasharray:none;stroke-opacity:1" />
      <path
         id="path871"
         d="M 11.90625,18.520833 V 11.90625 h 1.322917 v 6.614583 z"
         style="fill:#ff0000;stroke:#000000;stroke-width:0.264583;stroke-miterlimit:4;stroke-dasharray:none;stroke-opacity:1" />
      <path
         d="m 13.229166,13.229167 v 6.614583 h 3.96875 v -1.322917 h -2.645833 v -1.322916 h 2.645833 v -3.96875 z m 1.322917,1.322916 H 15.875 V 15.875 h -1.322917 z"
         style="fill:#0000ff;stroke:#000000;stroke-width:0.264583;stroke-miterlimit:4;stroke-dasharray:none;stroke-opacity:1"
         id="path873" />
      <path
         style="fill:#ffffff;stroke:#000000;stroke-width:0.264583;stroke-miterlimit:4;stroke-dasharray:none;stroke-opacity:1"
         d="m 21.166667,13.229167 h -2.645834 v 1.322916 h 2.645833 v 3.96875 h -3.968749 v -1.322917 l 2.645833,1e-6 V 15.875 h -2.645833 v -3.96875 h 3.96875 z"
         id="path875"
         sodipodi:nodetypes="ccccccccccccc" />
      <path
         sodipodi:nodetypes="ccccccccccccc"
         id="path877"
         d="M 25.135417,14.552083 H 22.489583 V 15.875 h 2.645833 v 3.96875 H 21.166667 V 18.520833 H 23.8125 v -1.322916 l -2.645833,-1e-6 v -3.968749 h 3.96875 z"
         style="fill:#00ff00;stroke:#000000;stroke-width:0.264583;stroke-miterlimit:4;stroke-dasharray:none;stroke-opacity:1" />
      <path
         d="m 3.9687499,14.552083 v 3.96875 h 3.9687499 v -3.96875 z M 5.2916665,15.875 h 1.3229167 v 1.322916 H 5.2916665 Z"
         style="fill:#00ffff;fill-opacity:1;stroke:#000000;stroke-width:0.264583;stroke-miterlimit:4;stroke-dasharray:none;stroke-opacity:1"
         id="path879" />
      <path
         id="path990"
         d="m 25.135417,17.197917 h 1.322917 v 1.322916 h -1.322917 z"
         style="fill:#800080;fill-opacity:1;stroke:#000000;stroke-width:0.264583;stroke-linecap:butt;stroke-linejoin:miter;stroke-miterlimit:4;stroke-dasharray:none;stroke-opacity:1" />
      <g
         style="fill:#008080;fill-opacity:1;stroke:#000000;stroke-width:0.264583;stroke-miterlimit:4;stroke-dasharray:none;stroke-opacity:1"
         id="g1002"
         transform="translate(6.6666666e-7,9.2604167)">
        <path
           style="fill:#008080;fill-opacity:1;stroke:#000000;stroke-width:0.264583;stroke-linecap:butt;stroke-linejoin:miter;stroke-miterlimit:4;stroke-dasharray:none;stroke-opacity:1"
           d="M 26.458333,5.2916666 V 6.6145832 H 27.78125 V 5.2916666 Z"
           id="path992" />
        <path
           id="path994"
           d="m 27.78125,6.6145833 v 1.3229166 h 1.322917 V 6.6145833 Z"
           style="fill:#008080;fill-opacity:1;stroke:#000000;stroke-width:0.264583;stroke-linecap:butt;stroke-linejoin:miter;stroke-miterlimit:4;stroke-dasharray:none;stroke-opacity:1" />
        <path
           style="fill:#008080;fill-opacity:1;stroke:#000000;stroke-width:0.264583;stroke-linecap:butt;stroke-linejoin:miter;stroke-miterlimit:4;stroke-dasharray:none;stroke-opacity:1"
           d="m 29.104167,7.9375 v 1.3229166 h 1.322917 V 7.9375 Z"
           id="path996" />
        <path
           id="path998"
           d="M 26.458333,7.9375 V 9.2604166 H 27.78125 V 7.9375 Z"
           style="fill:#008080;fill-opacity:1;stroke:#000000;stroke-width:0.264583;stroke-linecap:butt;stroke-linejoin:miter;stroke-miterlimit:4;stroke-dasharray:none;stroke-opacity:1" />
        <path
           style="fill:#008080;fill-opacity:1;stroke:#000000;stroke-width:0.264583;stroke-linecap:butt;stroke-linejoin:miter;stroke-miterlimit:4;stroke-dasharray:none;stroke-opacity:1"
           d="m 29.104166,5.2916667 v 1.3229166 h 1.322917 V 5.2916667 Z"
           id="path1000" />
      </g>
      <path
         style="fill:#808000;fill-opacity:1;stroke:#000000;stroke-width:0.264583;stroke-miterlimit:4;stroke-dasharray:none;stroke-opacity:1"
         d="m 30.427084,14.552083 v 3.96875 h 2.645833 v 1.322917 h -2.645833 v 1.322917 h 3.96875 v -6.614584 h -1.322917 v 2.645834 h -1.322916 v -2.645834 z"
         id="path1004" />
      <g
         style="fill:#008000;fill-opacity:1;stroke:#000000;stroke-width:0.264583;stroke-miterlimit:4;stroke-dasharray:none;stroke-opacity:1"
         id="g1014"
         transform="translate(6.6666666e-7,9.2604167)">
        <g
           id="g1020"
           style="fill:#008000;fill-opacity:1;stroke:#000000;stroke-opacity:1">
          <path
             sodipodi:nodetypes="cccccccc"
             style="fill:#008000;fill-opacity:1;stroke:#000000;stroke-width:0.264583;stroke-linecap:butt;stroke-linejoin:miter;stroke-miterlimit:4;stroke-dasharray:none;stroke-opacity:1"
             d="m 38.364583,7.9375 v 1.3229166 h -3.96875 V 7.9375 h 0.661458 l 10e-7,-1.3229168 h 1.322916 V 7.9375 Z"
             id="path1010" />
          <path
             id="path1016"
             d="M 34.395833,5.291667 V 3.96875 h 3.96875 v 1.322917 h -0.661458 l -10e-7,1.322917 H 36.380208 V 5.291667 Z"
             style="fill:#008000;fill-opacity:1;stroke:#000000;stroke-width:0.264583;stroke-linecap:butt;stroke-linejoin:miter;stroke-miterlimit:4;stroke-dasharray:none;stroke-opacity:1"
             sodipodi:nodetypes="cccccccc" />
        </g>
      </g>
    </g>
    <g
       id="g1144"
       inkscape:export-xdpi="96"
       inkscape:export-ydpi="96"
       transform="translate(44.979166,-17.197916)">
      <g
         id="g902"
         style="fill:#ff00ff"
         transform="translate(-44.979166,-3.9687499)">
        <path
           style="fill:#ff00ff;fill-opacity:1"
           d="M 3.96875,23.8125 H 1.3229167 l -10e-8,1.322917 h 2.6458333 v 3.968749 H -3.3333335e-8 V 27.78125 H 2.6458333 V 26.458333 H -3.3333335e-8 l 6.6666661e-8,-3.96875 H 3.96875 Z"
           id="path881"
           sodipodi:nodetypes="ccccccccccccc" />
        <path
           style="fill:#ff00ff"
           d="m 7.9374998,23.8125 v 3.96875 h 2.6458332 v 1.322916 H 7.9374998 v 1.322917 H 11.90625 V 23.8125 h -1.322917 v 2.645833 H 9.2604165 V 23.8125 Z"
           id="path883" />
        <path
           style="fill:#ff00ff"
           d="m 11.90625,27.78125 v -6.614583 h 1.322917 v 6.614583 z"
           id="path885" />
        <path
           id="path887"
           style="fill:#ff00ff;stroke-width:1"
           d="m 13.229166,22.489583 v 6.614584 h 3.96875 V 27.78125 h -2.645833 v -1.322917 h 2.645833 v -3.96875 z M 14.552083,23.8125 H 15.875 v 1.322917 h -1.322917 z" />
        <path
           sodipodi:nodetypes="ccccccccccccc"
           id="path889"
           d="M 21.166667,22.489583 H 18.520833 V 23.8125 h 2.645833 v 3.96875 h -3.968749 v -1.322917 h 2.645833 v -1.322916 l -2.645833,-1e-6 v -3.968749 h 3.96875 z"
           style="fill:#ff00ff" />
        <path
           style="fill:#ff00ff"
           d="m 25.135417,23.8125 h -2.645834 v 1.322917 h 2.645833 v 3.968749 H 21.166667 V 27.78125 H 23.8125 v -1.322917 h -2.645833 v -3.96875 h 3.96875 z"
           id="path891"
           sodipodi:nodetypes="ccccccccccccc" />
        <path
           id="path893"
           style="fill:#ff00ff;fill-opacity:1;stroke-width:1"
           d="m 3.96875,23.8125 v 3.96875 H 7.9374999 V 23.8125 Z m 1.3229166,1.322917 h 1.3229167 v 1.322916 H 5.2916666 Z" />
      </g>
      <g
         style="fill:#ff0000"
         id="g918"
         transform="translate(-44.185416,-3.1749996)">
        <path
           sodipodi:nodetypes="ccccccccccccc"
           id="path904"
           d="M 3.96875,23.8125 H 1.3229167 l -10e-8,1.322917 h 2.6458333 v 3.968749 H -3.3333335e-8 V 27.78125 H 2.6458333 V 26.458333 H -3.3333335e-8 l 6.6666661e-8,-3.96875 H 3.96875 Z"
           style="fill:#ff0000;fill-opacity:1" />
        <path
           id="path906"
           d="m 7.9374998,23.8125 v 3.96875 h 2.6458332 v 1.322916 H 7.9374998 v 1.322917 H 11.90625 V 23.8125 h -1.322917 v 2.645833 H 9.2604165 V 23.8125 Z"
           style="fill:#ff0000" />
        <path
           id="path908"
           d="m 11.90625,27.78125 v -6.614583 h 1.322917 v 6.614583 z"
           style="fill:#ff0000" />
        <path
           d="m 13.229166,22.489583 v 6.614584 h 3.96875 V 27.78125 h -2.645833 v -1.322917 h 2.645833 v -3.96875 z M 14.552083,23.8125 H 15.875 v 1.322917 h -1.322917 z"
           style="fill:#ff0000;stroke-width:1"
           id="path910" />
        <path
           style="fill:#ff0000"
           d="M 21.166667,22.489583 H 18.520833 V 23.8125 h 2.645833 v 3.96875 h -3.968749 v -1.322917 h 2.645833 v -1.322916 l -2.645833,-1e-6 v -3.968749 h 3.96875 z"
           id="path912"
           sodipodi:nodetypes="ccccccccccccc" />
        <path
           sodipodi:nodetypes="ccccccccccccc"
           id="path914"
           d="m 25.135417,23.8125 h -2.645834 v 1.322917 h 2.645833 v 3.968749 H 21.166667 V 27.78125 H 23.8125 v -1.322917 h -2.645833 v -3.96875 h 3.96875 z"
           style="fill:#ff0000" />
        <path
           d="m 3.96875,23.8125 v 3.96875 H 7.9374999 V 23.8125 Z m 1.3229166,1.322917 h 1.3229167 v 1.322916 H 5.2916666 Z"
           style="fill:#ff0000;fill-opacity:1;stroke-width:1"
           id="path916" />
      </g>
      <g
         transform="translate(-43.391666,-2.3812496)"
         id="g934"
         style="fill:#ffff00">
        <path
           style="fill:#ffff00;fill-opacity:1"
           d="M 3.96875,23.8125 H 1.3229167 l -10e-8,1.322917 h 2.6458333 v 3.968749 H -3.3333335e-8 V 27.78125 H 2.6458333 V 26.458333 H -3.3333335e-8 l 6.6666661e-8,-3.96875 H 3.96875 Z"
           id="path920"
           sodipodi:nodetypes="ccccccccccccc" />
        <path
           style="fill:#ffff00"
           d="m 7.9374998,23.8125 v 3.96875 h 2.6458332 v 1.322916 H 7.9374998 v 1.322917 H 11.90625 V 23.8125 h -1.322917 v 2.645833 H 9.2604165 V 23.8125 Z"
           id="path922" />
        <path
           style="fill:#ffff00"
           d="m 11.90625,27.78125 v -6.614583 h 1.322917 v 6.614583 z"
           id="path924" />
        <path
           id="path926"
           style="fill:#ffff00;stroke-width:1"
           d="m 13.229166,22.489583 v 6.614584 h 3.96875 V 27.78125 h -2.645833 v -1.322917 h 2.645833 v -3.96875 z M 14.552083,23.8125 H 15.875 v 1.322917 h -1.322917 z" />
        <path
           sodipodi:nodetypes="ccccccccccccc"
           id="path928"
           d="M 21.166667,22.489583 H 18.520833 V 23.8125 h 2.645833 v 3.96875 h -3.968749 v -1.322917 h 2.645833 v -1.322916 l -2.645833,-1e-6 v -3.968749 h 3.96875 z"
           style="fill:#ffff00" />
        <path
           style="fill:#ffff00"
           d="m 25.135417,23.8125 h -2.645834 v 1.322917 h 2.645833 v 3.968749 H 21.166667 V 27.78125 H 23.8125 v -1.322917 h -2.645833 v -3.96875 h 3.96875 z"
           id="path930"
           sodipodi:nodetypes="ccccccccccccc" />
        <path
           id="path932"
           style="fill:#ffff00;fill-opacity:1;stroke-width:1"
           d="m 3.96875,23.8125 v 3.96875 H 7.9374999 V 23.8125 Z m 1.3229166,1.322917 h 1.3229167 v 1.322916 H 5.2916666 Z" />
      </g>
      <g
         style="fill:#00ffff"
         id="g950"
         transform="translate(-42.597916,-1.5874996)">
        <path
           sodipodi:nodetypes="ccccccccccccc"
           id="path936"
           d="M 3.96875,23.8125 H 1.3229167 l -10e-8,1.322917 h 2.6458333 v 3.968749 H -3.3333335e-8 V 27.78125 H 2.6458333 V 26.458333 H -3.3333335e-8 l 6.6666661e-8,-3.96875 H 3.96875 Z"
           style="fill:#00ffff;fill-opacity:1" />
        <path
           id="path938"
           d="m 7.9374998,23.8125 v 3.96875 h 2.6458332 v 1.322916 H 7.9374998 v 1.322917 H 11.90625 V 23.8125 h -1.322917 v 2.645833 H 9.2604165 V 23.8125 Z"
           style="fill:#00ffff" />
        <path
           id="path940"
           d="m 11.90625,27.78125 v -6.614583 h 1.322917 v 6.614583 z"
           style="fill:#00ffff" />
        <path
           d="m 13.229166,22.489583 v 6.614584 h 3.96875 V 27.78125 h -2.645833 v -1.322917 h 2.645833 v -3.96875 z M 14.552083,23.8125 H 15.875 v 1.322917 h -1.322917 z"
           style="fill:#00ffff;stroke-width:1"
           id="path942" />
        <path
           style="fill:#00ffff"
           d="M 21.166667,22.489583 H 18.520833 V 23.8125 h 2.645833 v 3.96875 h -3.968749 v -1.322917 h 2.645833 v -1.322916 l -2.645833,-1e-6 v -3.968749 h 3.96875 z"
           id="path944"
           sodipodi:nodetypes="ccccccccccccc" />
        <path
           sodipodi:nodetypes="ccccccccccccc"
           id="path946"
           d="m 25.135417,23.8125 h -2.645834 v 1.322917 h 2.645833 v 3.968749 H 21.166667 V 27.78125 H 23.8125 v -1.322917 h -2.645833 v -3.96875 h 3.96875 z"
           style="fill:#00ffff" />
        <path
           d="m 3.96875,23.8125 v 3.96875 H 7.9374999 V 23.8125 Z m 1.3229166,1.322917 h 1.3229167 v 1.322916 H 5.2916666 Z"
           style="fill:#00ffff;fill-opacity:1;stroke-width:1"
           id="path948" />
      </g>
      <g
         transform="translate(-41.804167,-0.79374967)"
         id="g216"
         style="fill:#00ff00">
        <path
           style="fill:#00ff00;fill-opacity:1"
           d="M 3.96875,23.8125 H 1.3229167 l -10e-8,1.322917 h 2.6458333 v 3.968749 H -3.3333335e-8 V 27.78125 H 2.6458333 V 26.458333 H -3.3333335e-8 l 6.6666661e-8,-3.96875 H 3.96875 Z"
           id="path202"
           sodipodi:nodetypes="ccccccccccccc" />
        <path
           style="fill:#00ff00"
           d="m 7.9374998,23.8125 v 3.96875 h 2.6458332 v 1.322916 H 7.9374998 v 1.322917 H 11.90625 V 23.8125 h -1.322917 v 2.645833 H 9.2604165 V 23.8125 Z"
           id="path204" />
        <path
           style="fill:#00ff00"
           d="m 11.90625,27.78125 v -6.614583 h 1.322917 v 6.614583 z"
           id="path206" />
        <path
           id="path208"
           style="fill:#00ff00;stroke-width:1"
           d="m 13.229166,22.489583 v 6.614584 h 3.96875 V 27.78125 h -2.645833 v -1.322917 h 2.645833 v -3.96875 z M 14.552083,23.8125 H 15.875 v 1.322917 h -1.322917 z" />
        <path
           sodipodi:nodetypes="ccccccccccccc"
           id="path210"
           d="M 21.166667,22.489583 H 18.520833 V 23.8125 h 2.645833 v 3.96875 h -3.968749 v -1.322917 h 2.645833 v -1.322916 l -2.645833,-1e-6 v -3.968749 h 3.96875 z"
           style="fill:#00ff00" />
        <path
           style="fill:#00ff00"
           d="m 25.135417,23.8125 h -2.645834 v 1.322917 h 2.645833 v 3.968749 H 21.166667 V 27.78125 H 23.8125 v -1.322917 h -2.645833 v -3.96875 h 3.96875 z"
           id="path212"
           sodipodi:nodetypes="ccccccccccccc" />
        <path
           id="path214"
           style="fill:#00ff00;fill-opacity:1;stroke-width:1"
           d="m 3.96875,23.8125 v 3.96875 H 7.9374999 V 23.8125 Z m 1.3229166,1.322917 h 1.3229167 v 1.322916 H 5.2916666 Z" />
      </g>
      <g
         style="fill:#ffffff;fill-opacity:1;stroke:#000000;stroke-width:0.264583;stroke-miterlimit:4;stroke-dasharray:none;stroke-opacity:1"
         id="g232"
         transform="translate(-41.010417)">
        <path
           sodipodi:nodetypes="ccccccccccccc"
           id="path218"
           d="M 3.96875,23.8125 H 1.3229167 l -10e-8,1.322917 h 2.6458333 v 3.968749 H -3.3333335e-8 V 27.78125 H 2.6458333 V 26.458333 H -3.3333335e-8 l 6.6666661e-8,-3.96875 H 3.96875 Z"
           style="fill:#ffffff;fill-opacity:1;stroke:#000000;stroke-width:0.264583;stroke-miterlimit:4;stroke-dasharray:none;stroke-opacity:1" />
        <path
           id="path220"
           d="m 7.9374998,23.8125 v 3.96875 h 2.6458332 v 1.322916 H 7.9374998 v 1.322917 H 11.90625 V 23.8125 h -1.322917 v 2.645833 H 9.2604165 V 23.8125 Z"
           style="fill:#ffffff;fill-opacity:1;stroke:#000000;stroke-width:0.264583;stroke-miterlimit:4;stroke-dasharray:none;stroke-opacity:1" />
        <path
           id="path222"
           d="m 11.90625,27.78125 v -6.614583 h 1.322917 v 6.614583 z"
           style="fill:#ffffff;fill-opacity:1;stroke:#000000;stroke-width:0.264583;stroke-miterlimit:4;stroke-dasharray:none;stroke-opacity:1" />
        <path
           d="m 13.229166,22.489583 v 6.614584 h 3.96875 V 27.78125 h -2.645833 v -1.322917 h 2.645833 v -3.96875 z M 14.552083,23.8125 H 15.875 v 1.322917 h -1.322917 z"
           style="fill:#ffffff;fill-opacity:1;stroke:#000000;stroke-width:0.264583;stroke-miterlimit:4;stroke-dasharray:none;stroke-opacity:1"
           id="path224" />
        <path
           style="fill:#ffffff;fill-opacity:1;stroke:#000000;stroke-width:0.264583;stroke-miterlimit:4;stroke-dasharray:none;stroke-opacity:1"
           d="M 21.166667,22.489583 H 18.520833 V 23.8125 h 2.645833 v 3.96875 h -3.968749 v -1.322917 h 2.645833 v -1.322916 l -2.645833,-1e-6 v -3.968749 h 3.96875 z"
           id="path226"
           sodipodi:nodetypes="ccccccccccccc" />
        <path
           sodipodi:nodetypes="ccccccccccccc"
           id="path228"
           d="m 25.135417,23.8125 h -2.645834 v 1.322917 h 2.645833 v 3.968749 H 21.166667 V 27.78125 H 23.8125 v -1.322917 h -2.645833 v -3.96875 h 3.96875 z"
           style="fill:#ffffff;fill-opacity:1;stroke:#000000;stroke-width:0.264583;stroke-miterlimit:4;stroke-dasharray:none;stroke-opacity:1" />
        <path
           d="m 3.96875,23.8125 v 3.96875 H 7.9374999 V 23.8125 Z m 1.3229166,1.322917 h 1.3229167 v 1.322916 H 5.2916666 Z"
           style="fill:#ffffff;fill-opacity:1;stroke:#000000;stroke-width:0.264583;stroke-miterlimit:4;stroke-dasharray:none;stroke-opacity:1"
           id="path230" />
      </g>
      <path
         id="path1057"
         d="m -15.875,26.458333 h 1.322917 V 27.78125 H -15.875 Z"
         style="fill:#000000;fill-opacity:1;stroke:none;stroke-width:0.264583px;stroke-linecap:butt;stroke-linejoin:miter;stroke-opacity:1" />
      <g
         transform="translate(-41.010416,18.520833)"
         style="fill:#000000;fill-opacity:1;stroke:none"
         id="g1069">
        <path
           style="fill:#000000;fill-opacity:1;stroke:none;stroke-width:0.264583px;stroke-linecap:butt;stroke-linejoin:miter;stroke-opacity:1"
           d="M 26.458333,5.2916666 V 6.6145832 H 27.78125 V 5.2916666 Z"
           id="path1059" />
        <path
           id="path1061"
           d="m 27.78125,6.6145833 v 1.3229166 h 1.322917 V 6.6145833 Z"
           style="fill:#000000;fill-opacity:1;stroke:none;stroke-width:0.264583px;stroke-linecap:butt;stroke-linejoin:miter;stroke-opacity:1" />
        <path
           style="fill:#000000;fill-opacity:1;stroke:none;stroke-width:0.264583px;stroke-linecap:butt;stroke-linejoin:miter;stroke-opacity:1"
           d="m 29.104167,7.9375 v 1.3229166 h 1.322917 V 7.9375 Z"
           id="path1063" />
        <path
           id="path1065"
           d="M 26.458333,7.9375 V 9.2604166 H 27.78125 V 7.9375 Z"
           style="fill:#000000;fill-opacity:1;stroke:none;stroke-width:0.264583px;stroke-linecap:butt;stroke-linejoin:miter;stroke-opacity:1" />
        <path
           style="fill:#000000;fill-opacity:1;stroke:none;stroke-width:0.264583px;stroke-linecap:butt;stroke-linejoin:miter;stroke-opacity:1"
           d="m 29.104166,5.2916667 v 1.3229166 h 1.322917 V 5.2916667 Z"
           id="path1067" />
      </g>
      <path
         style="fill:#000000"
         d="m -10.583333,23.8125 v 3.96875 h 2.6458327 v 1.322916 h -2.6458327 v 1.322917 h 3.9687497 V 23.8125 h -1.322917 v 2.645833 h -1.322916 V 23.8125 Z"
         id="path1071" />
      <g
         transform="translate(-41.010416,18.520833)"
         style="fill:#000000;fill-opacity:1;stroke:none"
         id="g1081">
        <path
           style="fill:#000000;fill-opacity:1;stroke:none;stroke-width:0.264583px;stroke-linecap:butt;stroke-linejoin:miter;stroke-opacity:1"
           d="m 34.395833,3.96875 h 3.96875 v 1.3229166 h -3.96875 z"
           id="path1073" />
        <path
           style="fill:#000000;fill-opacity:1;stroke:none;stroke-width:0.264583px;stroke-linecap:butt;stroke-linejoin:miter;stroke-opacity:1"
           d="m 35.057292,7.9374999 h 1.322916 V 6.6145832 h -1.322916 z"
           id="path1075" />
        <path
           id="path1077"
           d="m 34.395833,7.9375 h 3.96875 v 1.3229166 h -3.96875 z"
           style="fill:#000000;fill-opacity:1;stroke:none;stroke-width:0.264583px;stroke-linecap:butt;stroke-linejoin:miter;stroke-opacity:1" />
        <path
           id="path1079"
           d="m 36.380208,6.6145834 h 1.322916 V 5.2916667 h -1.322916 z"
           style="fill:#000000;fill-opacity:1;stroke:none;stroke-width:0.264583px;stroke-linecap:butt;stroke-linejoin:miter;stroke-opacity:1" />
      </g>
    </g>
    <path
       style="fill:#1177aa;stroke-width:0.264583"
       d="m -7.2760415,3.9687503 h 5.9531248 V 1.4882823 H -6.283854 v -0.496094 h 4.9609373 V 0 h -5.9531248 v 2.4804693 h 4.9609378 v 0.496094 h -4.9609378 z"
       id="path1077-3" />
    <g
       transform="translate(46.302083,3.9687506)"
       inkscape:export-ydpi="96"
       inkscape:export-xdpi="96"
       id="g1210">
      <g
         transform="translate(-44.979166,-3.9687499)"
         style="fill:#ff00ff"
         id="g1102">
        <path
           sodipodi:nodetypes="ccccccccccccc"
           id="path1088"
           d="M 3.96875,23.8125 H 1.3229167 l -10e-8,1.322917 h 2.6458333 v 3.968749 H -3.3333335e-8 V 27.78125 H 2.6458333 V 26.458333 H -3.3333335e-8 l 6.6666661e-8,-3.96875 H 3.96875 Z"
           style="fill:#ff00ff;fill-opacity:1" />
        <path
           id="path1090"
           d="m 7.9374998,23.8125 v 3.96875 h 2.6458332 v 1.322916 H 7.9374998 v 1.322917 H 11.90625 V 23.8125 h -1.322917 v 2.645833 H 9.2604165 V 23.8125 Z"
           style="fill:#ff00ff" />
        <path
           id="path1092"
           d="m 11.90625,27.78125 v -6.614583 h 1.322917 v 6.614583 z"
           style="fill:#ff00ff" />
        <path
           d="m 13.229166,22.489583 v 6.614584 h 3.96875 V 27.78125 h -2.645833 v -1.322917 h 2.645833 v -3.96875 z M 14.552083,23.8125 H 15.875 v 1.322917 h -1.322917 z"
           style="fill:#ff00ff;stroke-width:1"
           id="path1094" />
        <path
           style="fill:#ff00ff"
           d="M 21.166667,22.489583 H 18.520833 V 23.8125 h 2.645833 v 3.96875 h -3.968749 v -1.322917 h 2.645833 v -1.322916 l -2.645833,-1e-6 v -3.968749 h 3.96875 z"
           id="path1096"
           sodipodi:nodetypes="ccccccccccccc" />
        <path
           sodipodi:nodetypes="ccccccccccccc"
           id="path1098"
           d="m 25.135417,23.8125 h -2.645834 v 1.322917 h 2.645833 v 3.968749 H 21.166667 V 27.78125 H 23.8125 v -1.322917 h -2.645833 v -3.96875 h 3.96875 z"
           style="fill:#ff00ff" />
        <path
           d="m 3.96875,23.8125 v 3.96875 H 7.9374999 V 23.8125 Z m 1.3229166,1.322917 h 1.3229167 v 1.322916 H 5.2916666 Z"
           style="fill:#ff00ff;fill-opacity:1;stroke-width:1"
           id="path1100" />
      </g>
      <g
         transform="translate(-44.185416,-3.1749996)"
         id="g1118"
         style="fill:#ff0000">
        <path
           style="fill:#ff0000;fill-opacity:1"
           d="M 3.96875,23.8125 H 1.3229167 l -10e-8,1.322917 h 2.6458333 v 3.968749 H -3.3333335e-8 V 27.78125 H 2.6458333 V 26.458333 H -3.3333335e-8 l 6.6666661e-8,-3.96875 H 3.96875 Z"
           id="path1104"
           sodipodi:nodetypes="ccccccccccccc" />
        <path
           style="fill:#ff0000"
           d="m 7.9374998,23.8125 v 3.96875 h 2.6458332 v 1.322916 H 7.9374998 v 1.322917 H 11.90625 V 23.8125 h -1.322917 v 2.645833 H 9.2604165 V 23.8125 Z"
           id="path1106" />
        <path
           style="fill:#ff0000"
           d="m 11.90625,27.78125 v -6.614583 h 1.322917 v 6.614583 z"
           id="path1108" />
        <path
           id="path1110"
           style="fill:#ff0000;stroke-width:1"
           d="m 13.229166,22.489583 v 6.614584 h 3.96875 V 27.78125 h -2.645833 v -1.322917 h 2.645833 v -3.96875 z M 14.552083,23.8125 H 15.875 v 1.322917 h -1.322917 z" />
        <path
           sodipodi:nodetypes="ccccccccccccc"
           id="path1112"
           d="M 21.166667,22.489583 H 18.520833 V 23.8125 h 2.645833 v 3.96875 h -3.968749 v -1.322917 h 2.645833 v -1.322916 l -2.645833,-1e-6 v -3.968749 h 3.96875 z"
           style="fill:#ff0000" />
        <path
           style="fill:#ff0000"
           d="m 25.135417,23.8125 h -2.645834 v 1.322917 h 2.645833 v 3.968749 H 21.166667 V 27.78125 H 23.8125 v -1.322917 h -2.645833 v -3.96875 h 3.96875 z"
           id="path1114"
           sodipodi:nodetypes="ccccccccccccc" />
        <path
           id="path1116"
           style="fill:#ff0000;fill-opacity:1;stroke-width:1"
           d="m 3.96875,23.8125 v 3.96875 H 7.9374999 V 23.8125 Z m 1.3229166,1.322917 h 1.3229167 v 1.322916 H 5.2916666 Z" />
      </g>
      <g
         style="fill:#ffff00"
         id="g1134"
         transform="translate(-43.391666,-2.3812496)">
        <path
           sodipodi:nodetypes="ccccccccccccc"
           id="path1120"
           d="M 3.96875,23.8125 H 1.3229167 l -10e-8,1.322917 h 2.6458333 v 3.968749 H -3.3333335e-8 V 27.78125 H 2.6458333 V 26.458333 H -3.3333335e-8 l 6.6666661e-8,-3.96875 H 3.96875 Z"
           style="fill:#ffff00;fill-opacity:1" />
        <path
           id="path1122"
           d="m 7.9374998,23.8125 v 3.96875 h 2.6458332 v 1.322916 H 7.9374998 v 1.322917 H 11.90625 V 23.8125 h -1.322917 v 2.645833 H 9.2604165 V 23.8125 Z"
           style="fill:#ffff00" />
        <path
           id="path1124"
           d="m 11.90625,27.78125 v -6.614583 h 1.322917 v 6.614583 z"
           style="fill:#ffff00" />
        <path
           d="m 13.229166,22.489583 v 6.614584 h 3.96875 V 27.78125 h -2.645833 v -1.322917 h 2.645833 v -3.96875 z M 14.552083,23.8125 H 15.875 v 1.322917 h -1.322917 z"
           style="fill:#ffff00;stroke-width:1"
           id="path1126" />
        <path
           style="fill:#ffff00"
           d="M 21.166667,22.489583 H 18.520833 V 23.8125 h 2.645833 v 3.96875 h -3.968749 v -1.322917 h 2.645833 v -1.322916 l -2.645833,-1e-6 v -3.968749 h 3.96875 z"
           id="path1128"
           sodipodi:nodetypes="ccccccccccccc" />
        <path
           sodipodi:nodetypes="ccccccccccccc"
           id="path1130"
           d="m 25.135417,23.8125 h -2.645834 v 1.322917 h 2.645833 v 3.968749 H 21.166667 V 27.78125 H 23.8125 v -1.322917 h -2.645833 v -3.96875 h 3.96875 z"
           style="fill:#ffff00" />
        <path
           d="m 3.96875,23.8125 v 3.96875 H 7.9374999 V 23.8125 Z m 1.3229166,1.322917 h 1.3229167 v 1.322916 H 5.2916666 Z"
           style="fill:#ffff00;fill-opacity:1;stroke-width:1"
           id="path1132" />
      </g>
      <g
         transform="translate(-42.597916,-1.5874996)"
         id="g1150"
         style="fill:#00ffff">
        <path
           style="fill:#00ffff;fill-opacity:1"
           d="M 3.96875,23.8125 H 1.3229167 l -10e-8,1.322917 h 2.6458333 v 3.968749 H -3.3333335e-8 V 27.78125 H 2.6458333 V 26.458333 H -3.3333335e-8 l 6.6666661e-8,-3.96875 H 3.96875 Z"
           id="path1136"
           sodipodi:nodetypes="ccccccccccccc" />
        <path
           style="fill:#00ffff"
           d="m 7.9374998,23.8125 v 3.96875 h 2.6458332 v 1.322916 H 7.9374998 v 1.322917 H 11.90625 V 23.8125 h -1.322917 v 2.645833 H 9.2604165 V 23.8125 Z"
           id="path1138" />
        <path
           style="fill:#00ffff"
           d="m 11.90625,27.78125 v -6.614583 h 1.322917 v 6.614583 z"
           id="path1140" />
        <path
           id="path1142"
           style="fill:#00ffff;stroke-width:1"
           d="m 13.229166,22.489583 v 6.614584 h 3.96875 V 27.78125 h -2.645833 v -1.322917 h 2.645833 v -3.96875 z M 14.552083,23.8125 H 15.875 v 1.322917 h -1.322917 z" />
        <path
           sodipodi:nodetypes="ccccccccccccc"
           id="path1144"
           d="M 21.166667,22.489583 H 18.520833 V 23.8125 h 2.645833 v 3.96875 h -3.968749 v -1.322917 h 2.645833 v -1.322916 l -2.645833,-1e-6 v -3.968749 h 3.96875 z"
           style="fill:#00ffff" />
        <path
           style="fill:#00ffff"
           d="m 25.135417,23.8125 h -2.645834 v 1.322917 h 2.645833 v 3.968749 H 21.166667 V 27.78125 H 23.8125 v -1.322917 h -2.645833 v -3.96875 h 3.96875 z"
           id="path1146"
           sodipodi:nodetypes="ccccccccccccc" />
        <path
           id="path1148"
           style="fill:#00ffff;fill-opacity:1;stroke-width:1"
           d="m 3.96875,23.8125 v 3.96875 H 7.9374999 V 23.8125 Z m 1.3229166,1.322917 h 1.3229167 v 1.322916 H 5.2916666 Z" />
      </g>
      <g
         style="fill:#00ff00"
         id="g1166"
         transform="translate(-41.804167,-0.79374967)">
        <path
           sodipodi:nodetypes="ccccccccccccc"
           id="path1152"
           d="M 3.96875,23.8125 H 1.3229167 l -10e-8,1.322917 h 2.6458333 v 3.968749 H -3.3333335e-8 V 27.78125 H 2.6458333 V 26.458333 H -3.3333335e-8 l 6.6666661e-8,-3.96875 H 3.96875 Z"
           style="fill:#00ff00;fill-opacity:1" />
        <path
           id="path1154"
           d="m 7.9374998,23.8125 v 3.96875 h 2.6458332 v 1.322916 H 7.9374998 v 1.322917 H 11.90625 V 23.8125 h -1.322917 v 2.645833 H 9.2604165 V 23.8125 Z"
           style="fill:#00ff00" />
        <path
           id="path1156"
           d="m 11.90625,27.78125 v -6.614583 h 1.322917 v 6.614583 z"
           style="fill:#00ff00" />
        <path
           d="m 13.229166,22.489583 v 6.614584 h 3.96875 V 27.78125 h -2.645833 v -1.322917 h 2.645833 v -3.96875 z M 14.552083,23.8125 H 15.875 v 1.322917 h -1.322917 z"
           style="fill:#00ff00;stroke-width:1"
           id="path1158" />
        <path
           style="fill:#00ff00"
           d="M 21.166667,22.489583 H 18.520833 V 23.8125 h 2.645833 v 3.96875 h -3.968749 v -1.322917 h 2.645833 v -1.322916 l -2.645833,-1e-6 v -3.968749 h 3.96875 z"
           id="path1160"
           sodipodi:nodetypes="ccccccccccccc" />
        <path
           sodipodi:nodetypes="ccccccccccccc"
           id="path1162"
           d="m 25.135417,23.8125 h -2.645834 v 1.322917 h 2.645833 v 3.968749 H 21.166667 V 27.78125 H 23.8125 v -1.322917 h -2.645833 v -3.96875 h 3.96875 z"
           style="fill:#00ff00" />
        <path
           d="m 3.96875,23.8125 v 3.96875 H 7.9374999 V 23.8125 Z m 1.3229166,1.322917 h 1.3229167 v 1.322916 H 5.2916666 Z"
           style="fill:#00ff00;fill-opacity:1;stroke-width:1"
           id="path1164" />
      </g>
      <g
         transform="translate(-41.010417)"
         id="g1182"
         style="fill:#ffffff;fill-opacity:1;stroke:#000000;stroke-width:0.264583;stroke-miterlimit:4;stroke-dasharray:none;stroke-opacity:1">
        <path
           style="fill:#ffffff;fill-opacity:1;stroke:#000000;stroke-width:0.264583;stroke-miterlimit:4;stroke-dasharray:none;stroke-opacity:1"
           d="M 3.96875,23.8125 H 1.3229167 l -10e-8,1.322917 h 2.6458333 v 3.968749 H -3.3333335e-8 V 27.78125 H 2.6458333 V 26.458333 H -3.3333335e-8 l 6.6666661e-8,-3.96875 H 3.96875 Z"
           id="path1168"
           sodipodi:nodetypes="ccccccccccccc" />
        <path
           style="fill:#ffffff;fill-opacity:1;stroke:#000000;stroke-width:0.264583;stroke-miterlimit:4;stroke-dasharray:none;stroke-opacity:1"
           d="m 7.9374998,23.8125 v 3.96875 h 2.6458332 v 1.322916 H 7.9374998 v 1.322917 H 11.90625 V 23.8125 h -1.322917 v 2.645833 H 9.2604165 V 23.8125 Z"
           id="path1170" />
        <path
           style="fill:#ffffff;fill-opacity:1;stroke:#000000;stroke-width:0.264583;stroke-miterlimit:4;stroke-dasharray:none;stroke-opacity:1"
           d="m 11.90625,27.78125 v -6.614583 h 1.322917 v 6.614583 z"
           id="path1172" />
        <path
           id="path1174"
           style="fill:#ffffff;fill-opacity:1;stroke:#000000;stroke-width:0.264583;stroke-miterlimit:4;stroke-dasharray:none;stroke-opacity:1"
           d="m 13.229166,22.489583 v 6.614584 h 3.96875 V 27.78125 h -2.645833 v -1.322917 h 2.645833 v -3.96875 z M 14.552083,23.8125 H 15.875 v 1.322917 h -1.322917 z" />
        <path
           sodipodi:nodetypes="ccccccccccccc"
           id="path1176"
           d="M 21.166667,22.489583 H 18.520833 V 23.8125 h 2.645833 v 3.96875 h -3.968749 v -1.322917 h 2.645833 v -1.322916 l -2.645833,-1e-6 v -3.968749 h 3.96875 z"
           style="fill:#ffffff;fill-opacity:1;stroke:#000000;stroke-width:0.264583;stroke-miterlimit:4;stroke-dasharray:none;stroke-opacity:1" />
        <path
           style="fill:#ffffff;fill-opacity:1;stroke:#000000;stroke-width:0.264583;stroke-miterlimit:4;stroke-dasharray:none;stroke-opacity:1"
           d="m 25.135417,23.8125 h -2.645834 v 1.322917 h 2.645833 v 3.968749 H 21.166667 V 27.78125 H 23.8125 v -1.322917 h -2.645833 v -3.96875 h 3.96875 z"
           id="path1178"
           sodipodi:nodetypes="ccccccccccccc" />
        <path
           id="path1180"
           style="fill:#ffffff;fill-opacity:1;stroke:#000000;stroke-width:0.264583;stroke-miterlimit:4;stroke-dasharray:none;stroke-opacity:1"
           d="m 3.96875,23.8125 v 3.96875 H 7.9374999 V 23.8125 Z m 1.3229166,1.322917 h 1.3229167 v 1.322916 H 5.2916666 Z" />
      </g>
      <path
         style="fill:#000000;fill-opacity:1;stroke:none;stroke-width:0.264583px;stroke-linecap:butt;stroke-linejoin:miter;stroke-opacity:1"
         d="m -15.875,26.458333 h 1.322917 V 27.78125 H -15.875 Z"
         id="path1184" />
      <g
         id="g1196"
         style="fill:#000000;fill-opacity:1;stroke:none"
         transform="translate(-41.010416,18.520833)">
        <path
           id="path1186"
           d="M 26.458333,5.2916666 V 6.6145832 H 27.78125 V 5.2916666 Z"
           style="fill:#000000;fill-opacity:1;stroke:none;stroke-width:0.264583px;stroke-linecap:butt;stroke-linejoin:miter;stroke-opacity:1" />
        <path
           style="fill:#000000;fill-opacity:1;stroke:none;stroke-width:0.264583px;stroke-linecap:butt;stroke-linejoin:miter;stroke-opacity:1"
           d="m 27.78125,6.6145833 v 1.3229166 h 1.322917 V 6.6145833 Z"
           id="path1188" />
        <path
           id="path1190"
           d="m 29.104167,7.9375 v 1.3229166 h 1.322917 V 7.9375 Z"
           style="fill:#000000;fill-opacity:1;stroke:none;stroke-width:0.264583px;stroke-linecap:butt;stroke-linejoin:miter;stroke-opacity:1" />
        <path
           style="fill:#000000;fill-opacity:1;stroke:none;stroke-width:0.264583px;stroke-linecap:butt;stroke-linejoin:miter;stroke-opacity:1"
           d="M 26.458333,7.9375 V 9.2604166 H 27.78125 V 7.9375 Z"
           id="path1192" />
        <path
           id="path1194"
           d="m 29.104166,5.2916667 v 1.3229166 h 1.322917 V 5.2916667 Z"
           style="fill:#000000;fill-opacity:1;stroke:none;stroke-width:0.264583px;stroke-linecap:butt;stroke-linejoin:miter;stroke-opacity:1" />
      </g>
      <path
         id="path1198"
         d="m -10.583333,23.8125 v 3.96875 h 2.6458327 v 1.322916 h -2.6458327 v 1.322917 h 3.9687497 V 23.8125 h -1.322917 v 2.645833 h -1.322916 V 23.8125 Z"
         style="fill:#000000" />
      <g
         id="g1208"
         style="fill:#000000;fill-opacity:1;stroke:none"
         transform="translate(-41.010416,18.520833)">
        <path
           id="path1200"
           d="m 34.395833,3.96875 h 3.96875 v 1.3229166 h -3.96875 z"
           style="fill:#000000;fill-opacity:1;stroke:none;stroke-width:0.264583px;stroke-linecap:butt;stroke-linejoin:miter;stroke-opacity:1" />
        <path
           id="path1202"
           d="m 35.057292,7.9374999 h 1.322916 V 6.6145832 h -1.322916 z"
           style="fill:#000000;fill-opacity:1;stroke:none;stroke-width:0.264583px;stroke-linecap:butt;stroke-linejoin:miter;stroke-opacity:1" />
        <path
           style="fill:#000000;fill-opacity:1;stroke:none;stroke-width:0.264583px;stroke-linecap:butt;stroke-linejoin:miter;stroke-opacity:1"
           d="m 34.395833,7.9375 h 3.96875 v 1.3229166 h -3.96875 z"
           id="path1204" />
        <path
           style="fill:#000000;fill-opacity:1;stroke:none;stroke-width:0.264583px;stroke-linecap:butt;stroke-linejoin:miter;stroke-opacity:1"
           d="m 36.380208,6.6145834 h 1.322916 V 5.2916667 h -1.322916 z"
           id="path1206" />
      </g>
    </g>
  </g>
</svg>
