<?xml version="1.0" encoding="UTF-8" standalone="no"?>
<svg
   xmlns:dc="http://purl.org/dc/elements/1.1/"
   xmlns:cc="http://creativecommons.org/ns#"
   xmlns:rdf="http://www.w3.org/1999/02/22-rdf-syntax-ns#"
   xmlns:svg="http://www.w3.org/2000/svg"
   xmlns="http://www.w3.org/2000/svg"
   xmlns:sodipodi="http://sodipodi.sourceforge.net/DTD/sodipodi-0.dtd"
   xmlns:inkscape="http://www.inkscape.org/namespaces/inkscape"
   width="500"
   height="85"
   viewBox="0 0 132.29165 22.489583"
   version="1.1"
   id="svg8"
   inkscape:version="1.0.1 (3bc2e813f5, 2020-09-07)"
   sodipodi:docname="soyfreemacs.svg">
  <defs
     id="defs2">
    <rect
       x="6.6554632"
       y="4.910449"
       width="127.37998"
       height="43.701157"
       id="rect835" />
  </defs>
  <sodipodi:namedview
     id="base"
     pagecolor="#ffffff"
     bordercolor="#666666"
     borderopacity="1.0"
     inkscape:pageopacity="0.0"
     inkscape:pageshadow="2"
     inkscape:zoom="0.7"
     inkscape:cx="425.9516"
     inkscape:cy="95.162279"
     inkscape:document-units="mm"
     inkscape:current-layer="g884"
     inkscape:document-rotation="0"
     showgrid="false"
     inkscape:snap-bbox="true"
     inkscape:bbox-nodes="true"
     inkscape:snap-page="true"
     units="px"
     inkscape:window-width="1360"
     inkscape:window-height="742"
     inkscape:window-x="0"
     inkscape:window-y="26"
     inkscape:window-maximized="0" />
  <metadata
     id="metadata5">
    <rdf:RDF>
      <cc:Work
         rdf:about="">
        <dc:format>image/svg+xml</dc:format>
        <dc:type
           rdf:resource="http://purl.org/dc/dcmitype/StillImage" />
        <dc:title></dc:title>
      </cc:Work>
    </rdf:RDF>
  </metadata>
  <g
     inkscape:label="Layer 1"
     inkscape:groupmode="layer"
     id="layer1">
    <g
       id="g884"
       inkscape:export-xdpi="96"
       inkscape:export-ydpi="96"
       style="opacity:1"
       transform="matrix(2.0187372,0,0,2.0187372,-17.921294,-24.517167)">
      <path
         d="m 13.652682,14.210672 c 0,-0.6096 0.04516,-1.004712 0.158045,-1.591735 -0.903112,-0.361244 -1.399824,-0.474133 -2.032002,-0.474133 -1.682046,0 -2.9012474,1.061156 -2.9012474,2.540002 0,0.564445 0.1467557,0.959557 0.4741338,1.264357 0.3838226,0.349956 0.9031116,0.530579 1.9981356,0.677334 0.857956,0.124178 1.253068,0.248356 1.557868,0.508001 0.293511,0.237067 0.428978,0.564445 0.428978,0.993423 0,1.016001 -0.846667,1.74978 -2.032002,1.74978 -0.891823,0 -1.7723572,-0.428979 -1.8288017,-0.903112 L 9.3854781,18.218232 H 9.0242333 c 0,0.869246 -0.011289,1.23049 -0.079022,1.727202 0.6434673,0.293511 1.2869347,0.428978 1.9529797,0.428978 1.964268,0 3.38667,-1.185334 3.38667,-2.822225 0,-0.778934 -0.3048,-1.241779 -1.038579,-1.546579 -0.349956,-0.146756 -0.643467,-0.214489 -1.557868,-0.338667 -1.377246,-0.180623 -1.8626688,-0.553156 -1.8626688,-1.422402 0,-0.948267 0.7112008,-1.625601 1.7046238,-1.625601 0.440267,0 0.857957,0.09031 1.162757,0.259644 0.372534,0.191912 0.496712,0.361245 0.530578,0.688623 l 0.06773,0.643467 z"
         style="font-style:normal;font-variant:normal;font-weight:normal;font-stretch:normal;font-size:11.2889px;line-height:1.25;font-family:P052;-inkscape-font-specification:P052;white-space:pre;fill:#800000;fill-opacity:1;stroke:none"
         id="path839" />
      <path
         d="m 17.716664,14.85414 c -1.64818,0 -2.788359,1.162757 -2.788359,2.844803 0,1.591735 0.993423,2.675469 2.460981,2.675469 1.73849,0 2.980269,-1.207912 2.980269,-2.901247 0,-1.535291 -1.106312,-2.619025 -2.652891,-2.619025 z m -0.203201,0.372534 c 1.049868,0 1.806225,1.12889 1.806225,2.66418 0,1.309513 -0.564446,2.111024 -1.490135,2.111024 -1.106313,0 -1.85138,-1.083734 -1.85138,-2.686758 0,-1.354668 0.541867,-2.088447 1.53529,-2.088446 z"
         style="font-style:normal;font-variant:normal;font-weight:normal;font-stretch:normal;font-size:11.2889px;line-height:1.25;font-family:P052;-inkscape-font-specification:P052;white-space:pre;fill:#ff0000;fill-opacity:1;stroke:none"
         id="path841" />
      <path
         d="M 23.733641,19.177789 C 23.485286,18.748811 23.361108,18.489166 23.157907,17.93601 l -0.722489,-1.896536 c -0.06773,-0.180622 -0.1016,-0.338667 -0.1016,-0.474133 0,-0.158045 0.124178,-0.248356 0.372533,-0.259645 l 0.428979,-0.02258 v -0.316089 c -0.745068,0.02258 -1.049868,0.03387 -1.309513,0.03387 -0.259645,0 -0.553156,-0.01129 -1.309512,-0.03387 v 0.316089 l 0.2032,0.02258 c 0.282222,0.02258 0.417689,0.158045 0.587023,0.553156 l 1.23049,2.957692 c 0.316089,0.767645 0.428978,1.038579 0.632178,1.603024 l -0.259644,0.688623 c -0.361245,0.959556 -0.801512,1.478846 -1.230491,1.478846 -0.180622,0 -0.395111,-0.1016 -0.575733,-0.259645 h -0.146756 l -0.270934,0.846667 c 0.214489,0.124178 0.395112,0.169334 0.609601,0.169334 0.756356,0 1.241779,-0.4064 1.670757,-1.388535 l 2.291647,-5.283205 c 0.451556,-1.02729 0.666045,-1.33209 0.948267,-1.365957 l 0.31609,-0.02258 v -0.316089 c -0.609601,0.02258 -0.869246,0.03387 -1.072446,0.03387 -0.2032,0 -0.462845,-0.01129 -1.072445,-0.03387 v 0.316089 l 0.293511,0.02258 c 0.316089,0.02258 0.474134,0.124178 0.474134,0.282222 0,0.07902 -0.02258,0.180623 -0.06773,0.293512 z"
         style="font-style:normal;font-variant:normal;font-weight:normal;font-stretch:normal;font-size:11.2889px;line-height:1.25;font-family:P052;-inkscape-font-specification:P052;white-space:pre;fill:#808000;fill-opacity:1;stroke:none"
         id="path843" />
      <path
         d="m 29.095865,16.457164 c 0.293511,-0.02258 0.609601,-0.03387 1.162757,-0.03387 0.82409,0 1.140179,0.03387 1.343379,0.135467 l 0.09031,0.282222 0.05645,0.666045 h 0.338667 c -0.02258,-0.767645 -0.03387,-1.027289 -0.03387,-1.253067 0,-0.21449 0.01129,-0.553157 0.03387,-1.309513 h -0.338667 l -0.05645,0.587023 c -0.01129,0.1016 -0.04516,0.2032 -0.09031,0.293511 -0.2032,0.09031 -0.519289,0.124178 -1.264357,0.124178 -0.541867,0 -0.846667,-0.01129 -1.241779,-0.03387 v -3.01413 c 0.338667,-0.07902 0.553156,-0.09031 1.219201,-0.09031 0.530579,0 1.174046,0.06773 1.512713,0.158045 0.270934,0.06773 0.3048,0.124178 0.3048,0.383822 v 0.733779 h 0.395112 c 0,-0.677334 0.05644,-1.207913 0.180622,-1.715913 -0.541867,-0.02258 -0.869245,-0.03387 -1.377246,-0.03387 l -1.207912,0.01129 c -0.553156,0.01129 -0.959557,0.02258 -1.23049,0.02258 -0.395112,0 -0.914401,-0.01129 -1.986847,-0.03387 v 0.338667 l 0.541868,0.03387 c 0.519289,0.03387 0.564445,0.1016 0.575734,1.016001 v 5.068716 c -0.01129,0.903112 -0.05645,0.993423 -0.575734,1.016001 l -0.541868,0.03387 v 0.338667 c 0.666046,-0.02258 1.061157,-0.03387 1.64818,-0.03387 0.587023,0 0.993423,0.01129 1.659468,0.03387 v -0.338667 l -0.541867,-0.03387 c -0.519289,-0.02258 -0.564445,-0.1016 -0.575734,-1.016001 z"
         style="font-style:normal;font-variant:normal;font-weight:normal;font-stretch:normal;font-size:11.2889px;line-height:1.25;font-family:P052;-inkscape-font-specification:P052;white-space:pre;fill:#ffff00;fill-opacity:1;stroke:none"
         id="path845" />
      <path
         d="m 32.911503,19.843834 v 0.338667 c 0.745067,-0.02258 1.072446,-0.03387 1.388535,-0.03387 0.270933,0 0.688623,0.01129 1.614312,0.03387 v -0.338667 l -0.587022,-0.03387 c -0.51929,-0.03387 -0.530579,-0.04516 -0.530579,-0.812801 v -1.941691 c 0,-0.688622 0.451556,-1.241779 1.004712,-1.241779 0.338667,0 0.575734,0.158045 0.756357,0.51929 h 0.237067 l 0.1016,-1.354668 c -0.135467,-0.07902 -0.327378,-0.124178 -0.530579,-0.124178 -0.338667,0 -0.699911,0.180622 -0.936978,0.462845 l -0.632179,0.74507 v -1.162757 l -0.1016,-0.04516 c -0.553156,0.237068 -1.174045,0.395112 -1.761068,0.462846 v 0.316089 h 0.417689 c 0.462845,0.01129 0.485423,0.05645 0.496712,0.82409 v 2.540002 c -0.01129,0.733779 -0.02258,0.778934 -0.41769,0.812801 z"
         style="font-style:normal;font-variant:normal;font-weight:normal;font-stretch:normal;font-size:11.2889px;line-height:1.25;font-family:P052;-inkscape-font-specification:P052;white-space:pre;fill:#008000;fill-opacity:1;stroke:none"
         id="path847" />
      <path
         d="M 42.021611,19.358411 41.874855,19.245522 C 41.163654,19.6745 40.892721,19.7761 40.407298,19.7761 c -0.733779,0 -1.343379,-0.327378 -1.659468,-0.880534 -0.21449,-0.361245 -0.293512,-0.688623 -0.31609,-1.343379 h 1.64818 c 0.812801,0 1.33209,-0.04516 2.043291,-0.158045 0.01129,-0.158044 0.02258,-0.259644 0.02258,-0.395111 0,-1.298224 -0.835379,-2.144891 -2.111025,-2.144891 -0.4064,0 -0.891823,0.146756 -1.354668,0.417689 -0.92569,0.541867 -1.298223,1.23049 -1.298223,2.415825 0,0.699912 0.169333,1.309512 0.474133,1.738491 0.451556,0.598311 1.196624,0.948267 2.05458,0.948267 0.428979,0 0.835379,-0.09031 1.298224,-0.293511 0.293511,-0.124178 0.541867,-0.270934 0.587023,-0.338667 z m -0.880535,-2.223913 c -0.575733,0.02258 -0.846667,0.03387 -1.264356,0.03387 -0.530579,0 -0.812801,-0.01129 -1.422402,-0.06773 0,-0.530578 0.04516,-0.778934 0.191911,-1.083734 0.237067,-0.485423 0.711201,-0.790223 1.253068,-0.790223 0.383823,0 0.677334,0.146755 0.880535,0.451556 0.248355,0.372533 0.327378,0.699911 0.361244,1.456268 z"
         style="font-style:normal;font-variant:normal;font-weight:normal;font-stretch:normal;font-size:11.2889px;line-height:1.25;font-family:P052;-inkscape-font-specification:P052;white-space:pre;fill:#00ff00;fill-opacity:1;stroke:none"
         id="path849" />
      <path
         d="m 48.817507,19.843834 v 0.338667 c -0.733778,-0.02258 -1.072445,-0.03387 -1.399823,-0.03387 -0.180623,0 -0.428979,0 -0.790224,0.01129 -0.857956,0.01129 -1.478845,0.02258 -1.817512,0.02258 -0.383823,0 -0.846668,-0.01129 -1.885247,-0.03387 0,-0.654756 -0.06773,-1.264357 -0.180622,-1.851379 h 0.395111 c 0.05644,0.372533 0.09031,0.6096 0.124178,0.7112 0.07902,0.316089 0.180623,0.508001 0.282223,0.553156 0.169333,0.09031 1.02729,0.146756 2.122313,0.146756 0.587023,0 0.767645,-0.01129 1.095023,-0.09031 v -3.160892 c -0.293511,-0.02258 -0.6096,-0.03387 -1.162756,-0.03387 -0.835379,0 -1.140179,0.03387 -1.34338,0.135467 l -0.09031,0.282222 -0.05644,0.666045 h -0.338667 c 0.02258,-0.745067 0.03387,-1.016001 0.03387,-1.253067 0,-0.225778 -0.01129,-0.564445 -0.03387,-1.309513 h 0.338667 l 0.05644,0.587023 c 0.01129,0.1016 0.03387,0.2032 0.09031,0.293511 0.203201,0.09031 0.51929,0.124178 1.264357,0.124178 0.541867,0 0.846668,-0.01129 1.241779,-0.03387 V 12.90116 c -0.349956,-0.07902 -0.575734,-0.09031 -1.343379,-0.09031 -0.598312,0 -1.264357,0.06773 -1.614313,0.158045 -0.270933,0.06773 -0.3048,0.124178 -0.3048,0.383822 v 0.733779 h -0.395111 c 0,-0.677334 -0.05644,-1.219201 -0.180623,-1.715913 0.541867,-0.02258 0.880534,-0.03387 1.399824,-0.03387 0.293511,0 0.666045,0 1.117601,0.01129 0.733778,0.01129 1.253068,0.02258 1.501424,0.02258 0.462845,0 0.936978,-0.01129 2.009424,-0.03387 v 0.338667 l -0.541867,0.03387 c -0.51929,0.03387 -0.564445,0.1016 -0.575734,1.016001 v 5.068716 c 0.01129,0.914401 0.04516,0.970846 0.575734,1.016001 z"
         style="font-style:normal;font-variant:normal;font-weight:normal;font-stretch:normal;font-size:11.2889px;line-height:1.25;font-family:P052;-inkscape-font-specification:P052;white-space:pre;fill:#008080;fill-opacity:1;stroke:none"
         id="path851" />
      <path
         d="m 49.573845,19.843834 v 0.338667 c 0.790223,-0.02258 1.106312,-0.03387 1.43369,-0.03387 0.349956,0 0.654756,0.01129 1.343379,0.03387 v -0.338667 l -0.474134,-0.03387 c -0.395111,-0.03387 -0.417689,-0.07902 -0.417689,-0.812801 v -2.393247 c 0,-0.508 0.745068,-1.061156 1.422402,-1.061156 0.6096,0 1.027289,0.575734 1.027289,1.43369 v 2.020713 c 0,0.733779 -0.03387,0.778934 -0.417689,0.812801 l -0.519289,0.03387 v 0.338667 c 0.790223,-0.02258 1.117601,-0.03387 1.411112,-0.03387 0.293512,0 0.609601,0.01129 1.411113,0.03387 v -0.338667 l -0.51929,-0.03387 c -0.395111,-0.04516 -0.4064,-0.06773 -0.417689,-0.812801 v -2.393247 c 0,-0.508 0.745068,-1.061156 1.422402,-1.061156 0.6096,0 1.027289,0.575734 1.027289,1.43369 v 3.206048 c 0.508001,-0.02258 0.699912,-0.03387 0.891824,-0.03387 0.169333,0 0.383822,0.01129 1.004712,0.03387 v -0.338667 l -0.530579,-0.03387 c -0.395111,-0.04516 -0.4064,-0.06773 -0.417689,-0.812801 v -2.325513 c 0,-1.117601 -0.654756,-1.817513 -1.693335,-1.817513 -0.4064,0 -0.72249,0.09031 -0.92569,0.282222 l -0.857956,0.767652 c -0.361245,-0.756357 -0.812801,-1.049868 -1.603024,-1.049868 -0.417689,0 -0.733779,0.09031 -0.936979,0.282222 l -0.778934,0.72249 v -0.959557 l -0.1016,-0.04516 c -0.553156,0.237067 -1.174046,0.395112 -1.761068,0.462845 v 0.31609 h 0.417689 c 0.462845,0.01129 0.485423,0.05645 0.496711,0.82409 v 2.540002 c -0.01129,0.733779 -0.02258,0.778934 -0.417689,0.812801 z"
         style="font-style:normal;font-variant:normal;font-weight:normal;font-stretch:normal;font-size:11.2889px;line-height:1.25;font-family:P052;-inkscape-font-specification:P052;white-space:pre;fill:#00ffff;fill-opacity:1;stroke:none"
         id="path853" />
      <path
         d="m 63.01892,19.222944 -0.05645,0.959557 c 0.553157,-0.02258 0.72249,-0.03387 0.880535,-0.03387 0.146755,0 0.214489,0 0.598311,0.02258 l 0.237067,0.01129 v -0.338667 l -0.440267,-0.02258 c -0.293511,-0.03387 -0.3048,-0.06773 -0.316089,-0.654756 v -2.065869 c 0,-1.648179 -0.474134,-2.246491 -1.783646,-2.246491 -0.496712,0 -0.936979,0.124178 -1.365957,0.383822 l -0.598307,0.361247 v 0.733779 l 0.293511,0.07902 0.146756,-0.349956 c 0.237067,-0.530578 0.349956,-0.6096 0.869245,-0.6096 1.061157,0 1.501424,0.417689 1.535291,1.444979 l -1.117601,0.2032 c -1.535291,0.282223 -2.178758,0.812801 -2.178758,1.806224 0,0.869245 0.519289,1.377246 1.422401,1.377246 0.21449,0 0.395112,-0.03387 0.474134,-0.09031 z m 0,-0.474133 c -0.327378,0.462844 -1.038579,0.891823 -1.478846,0.891823 -0.462845,0 -0.846668,-0.406401 -0.846668,-0.903112 0,-0.41769 0.225778,-0.812801 0.553157,-1.02729 0.293511,-0.169334 0.9144,-0.327378 1.772357,-0.451556 z"
         style="font-style:normal;font-variant:normal;font-weight:normal;font-stretch:normal;font-size:11.2889px;line-height:1.25;font-family:P052;-inkscape-font-specification:P052;white-space:pre;fill:#000080;fill-opacity:1;stroke:none"
         id="path855" />
      <path
         d="m 69.510016,16.637786 c 0,-0.519289 0.05644,-0.982134 0.158044,-1.388535 -0.451556,-0.270933 -0.846667,-0.395111 -1.309512,-0.395111 -0.553156,0 -1.174046,0.214489 -1.85138,0.643467 -0.790223,0.496712 -1.207912,1.275646 -1.207912,2.280358 0,1.524002 1.061156,2.596447 2.585158,2.596447 0.587023,0 1.43369,-0.214489 1.546579,-0.383822 l 0.237067,-0.361245 -0.112889,-0.169334 c -0.428978,0.225778 -0.778934,0.327378 -1.185334,0.327378 -1.253068,0 -2.077158,-0.970845 -2.077158,-2.46098 0,-1.207912 0.564445,-1.885246 1.580446,-1.885246 0.508001,0 1.038579,0.214489 1.241779,0.508 l 0.07902,0.688623 z"
         style="font-style:normal;font-variant:normal;font-weight:normal;font-stretch:normal;font-size:11.2889px;line-height:1.25;font-family:P052;-inkscape-font-specification:P052;white-space:pre;fill:#0000ff;fill-opacity:1;stroke:none"
         id="path857" />
      <path
         d="m 70.458255,18.534321 c 0,0.778935 -0.03387,1.117602 -0.124178,1.569158 0.598312,0.191911 1.02729,0.270933 1.54658,0.270933 1.478846,0 2.528713,-0.778934 2.528713,-1.896535 0,-0.361245 -0.1016,-0.609601 -0.316089,-0.835379 -0.293511,-0.282222 -0.654756,-0.417689 -1.659468,-0.6096 -0.92569,-0.180623 -1.23049,-0.406401 -1.23049,-0.92569 0,-0.564445 0.383822,-0.880534 1.083734,-0.880534 0.767645,0 1.33209,0.395111 1.33209,0.925689 v 0.259645 h 0.31609 c 0.01129,-0.654756 0.02258,-0.92569 0.05644,-1.275646 -0.6096,-0.2032 -0.993423,-0.282222 -1.467557,-0.282222 -1.309512,0 -2.111024,0.620889 -2.111024,1.63689 0,0.553157 0.248356,0.914401 0.767645,1.162757 0.3048,0.135467 0.903112,0.316089 1.670757,0.485423 0.508001,0.112889 0.72249,0.338667 0.72249,0.778934 0,0.609601 -0.564445,1.038579 -1.365957,1.038579 -0.82409,0 -1.411113,-0.395112 -1.411113,-0.959557 v -0.462845 z"
         style="font-style:normal;font-variant:normal;font-weight:normal;font-stretch:normal;font-size:11.2889px;line-height:1.25;font-family:P052;-inkscape-font-specification:P052;white-space:pre;fill:#0000ff;fill-opacity:1;stroke:none"
         id="path859" />
    </g>
  </g>
</svg>
