<?xml version="1.0" encoding="UTF-8" standalone="no"?>
<svg
   xmlns:dc="http://purl.org/dc/elements/1.1/"
   xmlns:cc="http://creativecommons.org/ns#"
   xmlns:rdf="http://www.w3.org/1999/02/22-rdf-syntax-ns#"
   xmlns:svg="http://www.w3.org/2000/svg"
   xmlns="http://www.w3.org/2000/svg"
   xmlns:xlink="http://www.w3.org/1999/xlink"
   xmlns:sodipodi="http://sodipodi.sourceforge.net/DTD/sodipodi-0.dtd"
   xmlns:inkscape="http://www.inkscape.org/namespaces/inkscape"
   width="500"
   height="66"
   viewBox="0 0 132.29165 17.462493"
   version="1.1"
   id="svg8"
   inkscape:version="1.0.1 (3bc2e813f5, 2020-09-07)"
   sodipodi:docname="soyfreevim.svg">
  <defs
     id="defs2">
    <linearGradient
       inkscape:collect="always"
       id="linearGradient1094">
      <stop
         style="stop-color:#0000ff;stop-opacity:1;"
         offset="0"
         id="stop1090" />
      <stop
         style="stop-color:#00ff00;stop-opacity:1"
         offset="0.22954603"
         id="stop1104" />
      <stop
         style="stop-color:#0000ff;stop-opacity:1"
         offset="0.4169763"
         id="stop1102" />
      <stop
         style="stop-color:#ffff00;stop-opacity:1"
         offset="0.62925237"
         id="stop1100" />
      <stop
         style="stop-color:#ff0000;stop-opacity:1"
         offset="0.80662507"
         id="stop1098" />
      <stop
         style="stop-color:#00ffff;stop-opacity:1"
         offset="1"
         id="stop1092" />
    </linearGradient>
    <rect
       x="11.106029"
       y="-19.274199"
       width="78.146912"
       height="24.256651"
       id="rect978" />
    <rect
       x="6.6554632"
       y="4.910449"
       width="127.37998"
       height="43.701157"
       id="rect835" />
    <linearGradient
       inkscape:collect="always"
       xlink:href="#linearGradient1094"
       id="linearGradient1096"
       x1="187.43015"
       y1="31.835913"
       x2="-10.06023"
       y2="31.512671"
       gradientUnits="userSpaceOnUse"
       gradientTransform="translate(-98.295771,40.44548)" />
    <linearGradient
       inkscape:collect="always"
       xlink:href="#linearGradient1094"
       id="linearGradient1167"
       gradientUnits="userSpaceOnUse"
       gradientTransform="matrix(0.99764175,0,0,0.99764175,-1.0139811,-25.424246)"
       x1="187.43015"
       y1="31.835913"
       x2="-10.06023"
       y2="31.512671" />
  </defs>
  <sodipodi:namedview
     id="base"
     pagecolor="#ffffff"
     bordercolor="#666666"
     borderopacity="1.0"
     inkscape:pageopacity="0.0"
     inkscape:pageshadow="2"
     inkscape:zoom="0.98994949"
     inkscape:cx="247.66526"
     inkscape:cy="171.19632"
     inkscape:document-units="mm"
     inkscape:current-layer="layer1"
     inkscape:document-rotation="0"
     showgrid="false"
     inkscape:snap-bbox="true"
     inkscape:bbox-nodes="true"
     inkscape:snap-page="true"
     units="px"
     inkscape:window-width="1360"
     inkscape:window-height="742"
     inkscape:window-x="0"
     inkscape:window-y="26"
     inkscape:window-maximized="0" />
  <metadata
     id="metadata5">
    <rdf:RDF>
      <cc:Work
         rdf:about="">
        <dc:format>image/svg+xml</dc:format>
        <dc:type
           rdf:resource="http://purl.org/dc/dcmitype/StillImage" />
        <dc:title></dc:title>
      </cc:Work>
    </rdf:RDF>
  </metadata>
  <g
     inkscape:label="Layer 1"
     inkscape:groupmode="layer"
     id="layer1">
    <path
       id="rect1088"
       style="opacity:1;fill:url(#linearGradient1167);fill-opacity:1;stroke:#000000;stroke-width:0.263959"
       d="m 117.08408,0.13197955 c -0.68866,0 -1.22854,0.48415693 -1.22854,1.19142815 0,0.725883 0.53988,1.1909082 1.22854,1.1909082 0.68866,0 1.22804,-0.4650252 1.22804,-1.1909082 0,-0.70727122 -0.53938,-1.19142815 -1.22804,-1.19142815 z M 4.758546,1.0254213 c -2.3265405,0 -4.00166366,1.3774245 -4.00166366,3.2386575 0,1.7867832 1.41478526,2.6614258 2.64320206,3.1453452 l 1.7497603,0.7630063 c 1.2470259,0.5397573 2.1962264,0.9119189 2.1962264,2.2147847 0,1.135351 -0.9866563,1.935873 -2.6617636,1.935873 -1.3959281,0 -2.6617585,-0.614011 -3.5737618,-1.526014 l -0.93055978,1.079551 c 1.09812388,1.098126 2.64330238,1.804925 4.43008298,1.804925 2.6801775,0 4.3176944,-1.544761 4.3176944,-3.480447 0,-1.8053948 -1.1907656,-2.6430118 -2.6983643,-3.2572189 L 4.5167567,6.1994369 C 3.4744656,5.7713555 2.3390918,5.3433401 2.3390918,4.1707665 c 0,-1.0981264 0.9492375,-1.7868835 2.3637746,-1.7868835 1.2656404,0 2.196538,0.4470389 2.9968681,1.1543075 L 8.5184203,2.5328775 C 7.6250313,1.6394832 6.2847565,1.0254213 4.758546,1.0254213 Z M 46.077984,1.2486518 V 13.45832 h 1.56365 V 7.9863178 h 5.025024 V 6.6835357 H 47.641634 V 2.5514364 h 5.937024 V 1.2486518 Z m 54.161676,0 3.89031,12.2096682 h 1.80493 l 3.87175,-12.2096682 h -1.58221 l -1.95443,6.5886741 c -0.40948,1.4517581 -0.72567,2.6061521 -1.17236,4.0392991 h -0.0747 c -0.44669,-1.433147 -0.74427,-2.587541 -1.17234,-4.0392991 l -1.973,-6.5886741 z M 15.683991,4.1893256 c -2.382382,0 -4.466689,1.7313781 -4.466689,4.7651873 0,2.9965831 2.084307,4.7270401 4.466689,4.7270371 2.382376,0 4.467201,-1.730454 4.467203,-4.7270371 0,-3.0338092 -2.084827,-4.7651873 -4.467203,-4.7651873 z m 47.294095,0 c -1.67511,0 -3.089555,0.9120139 -4.038784,2.3637772 h -0.0562 L 58.753189,4.4130707 H 57.487525 V 13.45832 H 59.01354 V 8.1538712 c 1.079514,-1.8798473 2.36354,-2.5870077 3.722239,-2.5870077 0.707272,0 1.042709,0.093196 1.675525,0.3165453 l 0.353663,-1.321861 C 64.206598,4.2823579 63.648131,4.1893256 62.978086,4.1893256 Z m 8.840577,0 c -2.419599,0 -4.61568,1.7868095 -4.61568,4.7275519 0,3.0152005 2.159148,4.7646725 4.876546,4.7646725 1.451762,0 2.605618,-0.483439 3.499008,-1.079037 L 75.020202,11.5972 c -0.818942,0.521145 -1.675049,0.856321 -2.754561,0.856321 -1.879847,0 -3.331961,-1.042312 -3.518084,-3.0896653 h 7.128966 c 0.03724,-0.2419504 0.07423,-0.5769227 0.07423,-0.9305597 0,-2.5498872 -1.526372,-4.2439704 -4.132098,-4.2439704 z m 11.16775,0 c -2.4196,0 -4.616196,1.7868095 -4.616196,4.7275519 0,3.0152005 2.159148,4.7646725 4.876547,4.7646725 1.451761,0 2.605618,-0.483439 3.499008,-1.079037 L 86.187436,11.5972 c -0.818941,0.521145 -1.675049,0.856321 -2.75456,0.856321 -1.879846,0 -3.331447,-1.042312 -3.517568,-3.0896653 h 7.128449 c 0.0372,-0.2419504 0.07424,-0.5769227 0.07424,-0.9305597 0,-2.5498872 -1.525857,-4.2439704 -4.131583,-4.2439704 z m 43.329027,0 c -1.04229,0 -1.60047,0.5770996 -2.06578,1.4146558 h -0.0371 l -0.13043,-1.1909107 h -1.22854 V 13.45832 h 1.52653 V 6.9067662 c 0.44669,-0.9306152 0.85607,-1.3955823 1.4889,-1.3955823 0.67004,0 0.93056,0.5394036 0.93056,1.5816948 V 13.45832 h 1.41465 V 6.9067662 c 0.48393,-0.9306152 0.81896,-1.3955823 1.45178,-1.3955823 0.67005,0 0.96767,0.5394036 0.96767,1.5816948 V 13.45832 h 1.52603 V 6.9815195 c 0,-1.8053924 -0.74448,-2.7921939 -2.01012,-2.7921939 -1.04229,0 -1.60033,0.5958064 -2.12147,1.5636504 -0.26058,-1.0422912 -0.81925,-1.5636504 -1.71265,-1.5636504 z m -104.135575,0.2237451 4.224897,9.0638083 -0.27891,0.670211 c -0.446696,1.116738 -1.210014,1.935873 -2.475652,1.935873 -0.279189,0 -0.576725,-0.05599 -0.818686,-0.130433 l -0.316545,1.209985 c 0.316398,0.111657 0.762827,0.186112 1.190911,0.186112 2.047356,0 3.16407,-1.35908 3.834113,-3.14586 L 31.5231,4.4130707 H 30.071324 L 28.09833,9.4195353 C 27.800536,10.23848 27.447058,11.187496 27.13065,12.043664 H 27.05642 C 26.68417,11.168884 26.293371,10.219865 25.939739,9.4195353 L 23.724438,4.4130707 Z m 90.101915,0 V 5.659661 h 4.20633 v 7.798659 h 1.52653 V 4.4130707 Z M 71.856298,5.39931 c 1.544824,0 2.568079,0.9118872 2.698366,2.7731203 H 68.785192 C 69.064385,6.3856496 70.367312,5.39931 71.856298,5.39931 Z m 11.167235,0 c 1.544824,0 2.568594,0.9118872 2.698881,2.7731203 H 79.952427 C 80.231618,6.3856496 81.534546,5.39931 83.023533,5.39931 Z M 15.683991,5.454989 c 1.730945,0 2.884991,1.4149411 2.884991,3.4995233 0,2.0659677 -1.154046,3.4618917 -2.884991,3.4618917 -1.730951,0 -2.88448,-1.395924 -2.88448,-3.4618917 0,-2.0845822 1.153529,-3.4995233 2.88448,-3.4995233 z" />
  </g>
</svg>
