<?xml version="1.0" encoding="UTF-8" standalone="no"?>
<svg
   xmlns:dc="http://purl.org/dc/elements/1.1/"
   xmlns:cc="http://creativecommons.org/ns#"
   xmlns:rdf="http://www.w3.org/1999/02/22-rdf-syntax-ns#"
   xmlns:svg="http://www.w3.org/2000/svg"
   xmlns="http://www.w3.org/2000/svg"
   xmlns:xlink="http://www.w3.org/1999/xlink"
   xmlns:sodipodi="http://sodipodi.sourceforge.net/DTD/sodipodi-0.dtd"
   xmlns:inkscape="http://www.inkscape.org/namespaces/inkscape"
   width="500"
   height="116"
   viewBox="0 0 132.29166 30.691668"
   version="1.1"
   id="svg8"
   inkscape:version="1.0.1 (3bc2e813f5, 2020-09-07)"
   sodipodi:docname="xyzsh.svg">
  <defs
     id="defs2">
    <linearGradient
       inkscape:collect="always"
       id="linearGradient865">
      <stop
         style="stop-color:#ff0000;stop-opacity:1"
         offset="0"
         id="stop861" />
      <stop
         style="stop-color:#cdde87;stop-opacity:1"
         offset="0.1166496"
         id="stop875" />
      <stop
         style="stop-color:#88aa00;stop-opacity:1"
         offset="0.19146849"
         id="stop889" />
      <stop
         style="stop-color:#000080;stop-opacity:1"
         offset="0.26445755"
         id="stop871" />
      <stop
         style="stop-color:#00ffff;stop-opacity:1"
         offset="0.34438598"
         id="stop873" />
      <stop
         style="stop-color:#aa4400;stop-opacity:1"
         offset="0.42952642"
         id="stop885" />
      <stop
         style="stop-color:#00ff00;stop-opacity:1"
         offset="0.50464177"
         id="stop869" />
      <stop
         style="stop-color:#800080;stop-opacity:1"
         offset="0.60374206"
         id="stop877" />
      <stop
         style="stop-color:#ffd42a;stop-opacity:1"
         offset="0.65594447"
         id="stop887" />
      <stop
         style="stop-color:#ff00ff;stop-opacity:1"
         offset="0.71512771"
         id="stop879" />
      <stop
         style="stop-color:#808000;stop-opacity:1"
         offset="0.80676293"
         id="stop881" />
      <stop
         style="stop-color:#ffff00;stop-opacity:1"
         offset="0.90394378"
         id="stop883" />
      <stop
         style="stop-color:#ff0000;stop-opacity:1"
         offset="1"
         id="stop863" />
    </linearGradient>
    <rect
       x="-38.409939"
       y="3.4604292"
       width="249.62001"
       height="124.26161"
       id="rect835" />
    <linearGradient
       inkscape:collect="always"
       xlink:href="#linearGradient865"
       id="linearGradient867"
       x1="43.730103"
       y1="0"
       x2="43.730103"
       y2="10.149384"
       gradientUnits="userSpaceOnUse"
       gradientTransform="scale(3.0251823)" />
    <linearGradient
       inkscape:collect="always"
       xlink:href="#linearGradient865"
       id="linearGradient895"
       gradientUnits="userSpaceOnUse"
       x1="43.730103"
       y1="0"
       x2="43.730103"
       y2="10.149384"
       gradientTransform="translate(0,-15.875)" />
  </defs>
  <sodipodi:namedview
     id="base"
     pagecolor="#ffffff"
     bordercolor="#666666"
     borderopacity="1.0"
     inkscape:pageopacity="0.0"
     inkscape:pageshadow="2"
     inkscape:zoom="1.979899"
     inkscape:cx="195.51318"
     inkscape:cy="141.06247"
     inkscape:document-units="mm"
     inkscape:current-layer="layer1"
     inkscape:document-rotation="0"
     showgrid="false"
     inkscape:snap-bbox="true"
     inkscape:bbox-nodes="true"
     inkscape:snap-page="true"
     inkscape:snap-bbox-edge-midpoints="true"
     units="px"
     inkscape:window-width="2560"
     inkscape:window-height="1414"
     inkscape:window-x="0"
     inkscape:window-y="26"
     inkscape:window-maximized="0" />
  <metadata
     id="metadata5">
    <rdf:RDF>
      <cc:Work
         rdf:about="">
        <dc:format>image/svg+xml</dc:format>
        <dc:type
           rdf:resource="http://purl.org/dc/dcmitype/StillImage" />
        <dc:title></dc:title>
      </cc:Work>
    </rdf:RDF>
  </metadata>
  <g
     inkscape:label="Layer 1"
     inkscape:groupmode="layer"
     id="layer1">
    <path
       id="rect839"
       style="fill:url(#linearGradient867);fill-opacity:1;stroke-width:0.6767"
       d="m 61.952263,0 c -5.122626,0 -8.29334,2.6258037 -8.29334,6.8519713 0,2.8494584 1.505348,4.6414597 4.578925,5.4418687 l 5.795176,1.53673 c 2.977526,0.768394 4.289712,1.953577 4.289712,3.778512 0,1.24864 -0.672413,2.528559 -1.664921,3.232916 -0.928477,0.672349 -2.400741,0.9927 -4.289712,0.9927 -2.561313,0 -4.258762,-0.607879 -5.379337,-1.952569 -0.86444,-1.024524 -1.248271,-2.145488 -1.216252,-3.586225 h -2.817079 c 0.03201,2.145099 0.447237,3.55465 1.37571,4.835307 1.600821,2.209133 4.290844,3.329842 7.844671,3.329842 2.785424,0 5.057989,-0.640523 6.562759,-1.793113 1.568805,-1.24864 2.562259,-3.329473 2.562259,-5.346507 0,-2.881474 -1.793874,-4.994829 -4.963497,-5.859272 L 60.478066,9.8926019 C 57.66062,9.1242088 56.637022,8.2274848 56.637022,6.4345685 c 0,-2.3692162 2.080706,-3.9379685 5.218316,-3.9379685 3.713901,0 5.794427,1.6648058 5.826443,4.7383813 h 2.818641 c 0,-1.6008199 -0.09587,-2.0489983 -0.608127,-3.1375557 C 68.611639,1.408044 65.890279,0 61.952263,0 Z M 33.648603,0.38457334 V 3.0093645 H 46.775686 L 32.752829,21.098381 v 2.626355 H 50.521368 V 21.098381 H 36.498511 L 50.457272,3.0734601 V 0.38457334 Z m 41.782486,0 V 23.724736 h 2.976535 V 13.094253 h 12.006189 v 10.630483 h 2.978104 V 0.38457334 H 90.413813 V 10.469462 H 78.407624 V 0.38457334 Z M 124.28754,1.0239656 111.64039,24.364128 h 2.11359 L 126.40112,1.0239656 Z m -13.12708,0.7691467 c -3.00955,0 -5.44187,2.465157 -5.44187,5.4746984 0,3.0095423 2.43313,5.4746983 5.47469,5.4746983 2.97753,0 5.44187,-2.465095 5.44187,-5.4106028 0,-3.1055909 -2.40112,-5.5387939 -5.47469,-5.5387939 z m 0,2.2402178 c 1.82493,0 3.26574,1.440811 3.26574,3.2657467 0,1.7609005 -1.47202,3.2016512 -3.23292,3.2016512 -1.79292,0 -3.26575,-1.4399975 -3.26575,-3.2329173 0,-1.7929166 1.44,-3.2344806 3.23293,-3.2344806 z M 0.32047778,6.9473329 5.9233673,15.175013 0,23.724736 h 3.0421939 l 4.2568829,-6.436133 4.1943502,6.436133 h 3.10629 L 8.8045408,15.048386 14.438696,6.9473329 H 11.429332 L 7.3960019,13.030158 3.3611085,6.9473329 Z m 16.16771322,0 5.666985,16.8414981 -1.023965,2.656057 c -0.448231,1.184607 -1.02428,1.633655 -2.144857,1.633655 -0.448229,0 -0.833807,-0.06423 -1.410102,-0.192286 v 2.401238 c 0.544279,0.288149 1.08875,0.41584 1.793113,0.41584 0.864442,0 1.793805,-0.28815 2.498162,-0.800413 0.832429,-0.60831 1.312116,-1.31293 1.824379,-2.657621 L 31.152004,6.9473329 H 28.27083 L 23.62781,20.01032 19.338098,6.9473329 Z M 126.81696,13.414731 c -3.00953,0 -5.44343,2.43389 -5.44343,5.443432 0,3.041558 2.43314,5.474699 5.47471,5.474699 2.97751,0 5.44343,-2.433076 5.44343,-5.410603 0,-3.073573 -2.40112,-5.507528 -5.47471,-5.507528 z m 0,2.241781 c 1.82494,0 3.26575,1.440812 3.26575,3.265747 0,1.728888 -1.47358,3.168821 -3.23447,3.168821 -1.82495,0 -3.26575,-1.439997 -3.26575,-3.232917 0,-1.760904 1.44156,-3.201651 3.23447,-3.201651 z" />
    <rect
       style="fill:url(#linearGradient895);fill-opacity:1;stroke-width:0.223689"
       id="rect891"
       width="43.730103"
       height="10.149384"
       x="0"
       y="-15.875" />
    <path
       id="path893"
       style="font-style:normal;font-variant:normal;font-weight:normal;font-stretch:normal;font-size:10.5833px;line-height:1.25;font-family:FontAwesome;-inkscape-font-specification:FontAwesome;white-space:pre;fill:#000000;fill-opacity:1;stroke:none;stroke-width:1"
       d="m 20.478853,-15.875 c -1.693328,0 -2.741435,0.867982 -2.741435,2.264978 0,0.941913 0.497606,1.534275 1.513603,1.798857 l 1.915645,0.507979 c 0.984247,0.253999 1.418002,0.645772 1.418002,1.249019 0,0.4127494 -0.222272,0.8358372 -0.550354,1.0686689 -0.306916,0.2222503 -0.793586,0.3281455 -1.418002,0.3281455 -0.846664,0 -1.40777,-0.2009397 -1.778186,-0.6454386 -0.285748,-0.3386651 -0.412626,-0.7092098 -0.402042,-1.1854578 h -0.93121 c 0.01058,0.7090813 0.147838,1.1750205 0.454753,1.5983525 0.529165,0.7302479 1.418376,1.100708 2.593124,1.100708 0.920746,0 1.671961,-0.2117307 2.169376,-0.5927289 0.518582,-0.4127489 0.846977,-1.1005859 0.846977,-1.7673336 0,-0.952496 -0.592981,-1.651084 -1.640727,-1.936833 l -1.936833,-0.518831 c -0.931331,-0.253999 -1.269689,-0.550419 -1.269689,-1.143083 0,-0.783165 0.687795,-1.301729 1.724959,-1.301729 1.227662,0 1.915397,0.550316 1.92598,1.566312 h 0.931726 c 0,-0.529164 -0.03169,-0.677313 -0.201021,-1.037145 -0.423332,-0.888999 -1.322901,-1.35444 -2.624646,-1.35444 z m -9.356018,0.127124 v 0.867648 h 4.33927 l -4.635376,5.9794794 v 0.868164 h 5.873544 v -0.868164 h -4.635377 l 4.614189,-5.9582924 v -0.888835 z m 13.81156,0 v 7.7152914 h 0.983919 v -3.5139974 h 3.968749 v 3.5139974 h 0.984438 v -7.7152914 h -0.984438 v 3.333647 h -3.968749 v -3.333647 z m 16.149919,0.211357 -4.180623,7.715291 h 0.698664 l 4.180623,-7.715291 z m -4.33927,0.254248 c -0.99483,0 -1.798857,0.814879 -1.798857,1.809708 0,0.994831 0.804294,1.809709 1.809708,1.809709 0.984247,0 1.798857,-0.814858 1.798857,-1.788521 0,-1.02658 -0.793713,-1.830896 -1.809708,-1.830896 z m 0,0.740523 c 0.603248,0 1.079519,0.476273 1.079519,1.079521 0,0.582081 -0.486587,1.058333 -1.068668,1.058333 -0.592664,0 -1.079521,-0.476003 -1.079521,-1.068669 0,-0.592664 0.476004,-1.069185 1.06867,-1.069185 z M 0.10593668,-13.578499 1.95802,-10.858769 0,-8.0325846 h 1.0056233 l 1.4071493,-2.1275184 1.3864787,2.1275184 H 4.8260619 L 2.9104166,-10.900627 4.7728351,-13.578499 H 3.778064 l -1.333252,2.01073 -1.3337687,-2.01073 z m 5.34437642,0 1.8732709,5.5671017 -0.3384806,0.8779825 c -0.1481662,0.391582 -0.3385847,0.5400188 -0.7090008,0.5400188 -0.1481659,0 -0.2756223,-0.021232 -0.4661215,-0.063562 v 0.79375 c 0.1799161,0.09525 0.3598958,0.137459 0.5927288,0.137459 0.285749,0 0.5929575,-0.09525 0.8257892,-0.264583 0.2751662,-0.2010819 0.4337312,-0.4340003 0.603064,-0.8784995 L 10.297563,-13.578499 H 9.3451658 l -1.53479,4.3180824 -1.4180013,-4.3180824 z m 36.4701239,2.137854 c -0.994828,0 -1.799373,0.804543 -1.799373,1.7993731 0,1.005413 0.804297,1.8097088 1.809711,1.8097088 0.984244,0 1.799373,-0.8042744 1.799373,-1.7885214 0,-1.0159965 -0.793713,-1.8205605 -1.809711,-1.8205605 z m 0,0.74104 c 0.60325,0 1.079521,0.476273 1.079521,1.0795205 0,0.5714989 -0.487103,1.0474811 -1.069183,1.0474811 -0.60325,0 -1.079522,-0.4760034 -1.079522,-1.0686685 0,-0.5820821 0.47652,-1.0583331 1.069184,-1.0583331 z" />
  </g>
</svg>
